<?xml version="1.0" standalone="no"?>
<!DOCTYPE svg PUBLIC "-//W3C//DTD SVG 20010904//EN"
 "http://www.w3.org/TR/2001/REC-SVG-20010904/DTD/svg10.dtd">
<svg version="1.0" xmlns="http://www.w3.org/2000/svg"
 width="700.000000pt" height="700.000000pt" viewBox="0 0 700.000000 700.000000"
 preserveAspectRatio="xMidYMid meet">
<metadata>
Created by potrace 1.11, written by Peter Selinger 2001-2013
</metadata>
<g transform="translate(0.000000,700.000000) scale(0.100000,-0.100000)"
fill="#000000" stroke="none">
<path d="M1872 6339 c-341 -45 -608 -306 -661 -647 -8 -50 -11 -709 -11 -2199
1 -1748 3 -2141 14 -2203 46 -253 198 -450 435 -564 158 -76 34 -71 1851 -71
1817 0 1693 -5 1851 71 236 113 390 313 435 564 20 112 20 4309 0 4420 -54
299 -265 528 -565 613 l-76 22 -1605 1 c-883 1 -1633 -2 -1668 -7z m3308 -233
c199 -66 345 -223 385 -413 22 -102 22 -4284 0 -4386 -41 -193 -201 -362 -390
-412 -52 -13 -256 -15 -1675 -15 -1419 0 -1623 2 -1675 15 -189 50 -349 219
-390 412 -22 102 -22 4284 0 4386 48 226 241 401 470 427 39 4 779 7 1645 6
1498 -1 1578 -2 1630 -20z"/>
<path d="M3351 5565 c-70 -16 -179 -63 -227 -100 -17 -13 -37 -37 -44 -54 -11
-27 -10 -35 13 -73 14 -24 55 -72 91 -108 l66 -64 0 -149 0 -149 -65 -71
c-106 -116 -139 -211 -100 -286 15 -31 101 -112 145 -138 34 -20 40 -55 40
-226 l0 -120 -84 -87 c-99 -103 -111 -133 -80 -208 42 -101 128 -118 262 -52
111 55 162 55 267 0 58 -30 87 -40 123 -40 64 0 114 34 137 94 29 74 17 105
-81 206 l-84 87 0 120 c0 171 6 206 40 226 44 26 130 107 145 138 39 75 6 170
-99 284 l-65 70 -1 145 0 146 75 82 c95 104 111 134 94 174 -35 84 -248 169
-424 167 -44 0 -109 -7 -144 -14z m248 -100 c64 -32 84 -115 45 -185 -17 -31
-20 -63 -24 -259 l-5 -224 -115 0 -115 1 -8 214 c-6 172 -11 226 -28 279 -18
60 -19 70 -6 100 18 42 45 67 94 85 45 17 119 12 162 -11z m6 -749 c19 -8 40
-26 46 -40 23 -49 14 -52 -157 -51 -158 0 -159 0 -162 23 -8 52 51 81 161 82
46 0 92 -6 112 -14z m3 -143 c40 -19 62 -57 43 -76 -14 -14 -208 -23 -277 -12
-41 6 -45 9 -42 32 8 71 174 104 276 56z m-24 -183 l26 -10 0 -294 0 -294 -85
-7 c-46 -4 -98 -4 -115 0 l-30 7 2 296 3 296 25 7 c38 11 146 10 174 -1z"/>
<path d="M2355 3396 c-132 -26 -265 -88 -300 -142 -33 -50 -15 -92 89 -202
l66 -69 0 -150 0 -149 -41 -39 c-22 -22 -61 -70 -86 -107 -53 -77 -66 -143
-40 -194 15 -29 97 -111 149 -149 27 -20 27 -21 34 -183 l7 -162 -86 -89 c-99
-103 -111 -132 -79 -202 32 -73 63 -94 135 -94 52 1 73 7 131 38 59 32 78 37
134 37 56 0 74 -5 127 -35 34 -19 80 -37 102 -41 81 -13 151 34 173 116 16 58
-5 97 -100 188 l-80 78 0 160 0 161 55 37 c118 82 170 167 147 244 -15 49 -57
112 -126 189 l-56 61 0 140 0 140 59 59 c76 77 121 140 121 169 0 37 -56 91
-133 129 -131 63 -275 85 -402 61z m189 -100 c40 -17 86 -74 86 -107 0 -14 -9
-50 -20 -82 -15 -41 -20 -82 -20 -150 0 -52 -3 -149 -7 -215 l-6 -122 -112 0
-113 0 -4 213 c-4 187 -7 218 -26 265 -12 29 -22 68 -22 86 0 91 140 156 244
112z m-9 -747 c24 -6 55 -24 71 -40 46 -48 25 -56 -151 -61 l-150 -3 -3 27
c-8 65 117 106 233 77z m33 -153 c37 -19 61 -61 46 -76 -14 -14 -219 -23 -274
-13 -51 10 -63 32 -34 64 42 47 192 61 262 25z m-14 -182 c14 -5 16 -42 16
-310 l0 -304 -97 5 c-54 4 -108 8 -120 11 l-23 4 0 284 c0 297 0 298 45 309
30 7 161 8 179 1z"/>
<path d="M4430 3396 c-128 -27 -275 -99 -300 -146 -26 -49 6 -113 104 -210
l56 -54 0 -149 0 -149 -52 -57 c-167 -183 -169 -278 -7 -405 l79 -61 0 -160 0
-160 -90 -90 c-66 -66 -90 -96 -90 -115 0 -48 22 -102 54 -137 28 -31 40 -37
87 -41 49 -4 62 0 132 37 68 36 86 41 142 41 55 0 74 -5 129 -36 120 -65 210
-54 255 33 43 85 35 110 -70 218 l-92 95 5 157 6 157 28 24 c149 122 164 142
164 216 0 64 -44 147 -121 226 l-59 60 0 147 0 147 80 81 c108 112 119 142 70
198 -89 101 -344 168 -510 133z m187 -97 c42 -16 82 -58 89 -95 4 -21 -1 -54
-15 -93 -17 -51 -21 -85 -21 -200 0 -76 -3 -172 -6 -214 l-7 -77 -118 0 -118
0 2 218 c2 206 1 219 -20 262 -31 62 -30 110 4 151 15 17 41 38 58 45 37 16
114 18 152 3z m37 -764 c34 -16 65 -59 52 -72 -12 -12 -298 -22 -318 -11 -24
12 -23 41 2 63 48 44 191 54 264 20z m-5 -139 c39 -21 60 -61 42 -79 -15 -15
-184 -21 -261 -10 -44 7 -56 12 -58 29 -10 66 183 108 277 60z m-15 -192 c14
-13 16 -55 16 -305 l0 -290 -112 3 -113 3 -3 292 -2 291 27 10 c46 17 169 15
187 -4z"/>
</g>
</svg>
